<svg width="29" height="24" viewBox="0 0 29 24" fill="none" xmlns="http://www.w3.org/2000/svg">
<path d="M13.1818 20.0667V6.93333C12.2811 6.4 11.3254 6 10.3148 5.73333C9.30417 5.46667 8.28258 5.33333 7.25 5.33333C6.45909 5.33333 5.67367 5.41111 4.89375 5.56667C4.11383 5.72222 3.36136 5.95556 2.63636 6.26667V19.4667C3.4053 19.2 4.16875 19 4.9267 18.8667C5.68466 18.7333 6.45909 18.6667 7.25 18.6667C8.28258 18.6667 9.28769 18.7833 10.2653 19.0167C11.243 19.25 12.2152 19.6 13.1818 20.0667ZM14.5 24C13.4455 23.1556 12.303 22.5 11.0727 22.0333C9.84243 21.5667 8.56818 21.3333 7.25 21.3333C6.32727 21.3333 5.42102 21.4556 4.53125 21.7C3.64148 21.9444 2.79015 22.2889 1.97727 22.7333C1.51591 22.9778 1.07102 22.9667 0.642614 22.7C0.214205 22.4333 0 22.0444 0 21.5333V5.46667C0 5.22222 0.0604167 4.98889 0.18125 4.76667C0.302083 4.54444 0.483333 4.37778 0.725 4.26667C1.73561 3.73333 2.79015 3.33333 3.88864 3.06667C4.98712 2.8 6.10758 2.66667 7.25 2.66667C8.87576 2.66667 10.2598 2.85556 11.4023 3.23333C12.5447 3.61111 13.775 4.18889 15.0932 4.96667C15.3348 5.1 15.5161 5.25556 15.6369 5.43333C15.7578 5.61111 15.8182 5.84444 15.8182 6.13333V20.0667C16.7848 19.6 17.757 19.25 18.7347 19.0167C19.7123 18.7833 20.7174 18.6667 21.75 18.6667C22.5409 18.6667 23.3153 18.7333 24.0733 18.8667C24.8313 19 25.5947 19.2 26.3636 19.4667V3.43333C26.6932 3.54444 27.0172 3.66667 27.3358 3.8C27.6544 3.93333 27.9674 4.08889 28.275 4.26667C28.5167 4.37778 28.6979 4.54444 28.8188 4.76667C28.9396 4.98889 29 5.22222 29 5.46667V21.5333C29 22.0444 28.7858 22.4333 28.3574 22.7C27.929 22.9667 27.4841 22.9778 27.0227 22.7333C26.2099 22.2889 25.3585 21.9444 24.4688 21.7C23.579 21.4556 22.6727 21.3333 21.75 21.3333C20.4318 21.3333 19.1576 21.5667 17.9273 22.0333C16.697 22.5 15.5545 23.1556 14.5 24ZM19.1136 16V1.33333L23.0682 0V14.6667L19.1136 16Z" fill="#1C1B1F"/>
</svg>
