<svg width="38" height="38" viewBox="0 0 38 38" fill="none" xmlns="http://www.w3.org/2000/svg">
<mask id="mask0_397_68" style="mask-type:alpha" maskUnits="userSpaceOnUse" x="0" y="0" width="38" height="38">
<rect x="0.5" y="0.5" width="37" height="37" fill="black" stroke="black"/>
</mask>
<g mask="url(#mask0_397_68)">
<path d="M23.4473 5.22656L24.25 5.83887V2.08301H28V8.71875L28.1973 8.86816L34.1357 13.3965L32.8369 15.1279L28.8047 12.0322L28 11.415V26.417H19.5V16.917H15.333V26.417H6.83301V11.415L6.0293 12.0322L1.99609 15.1279L0.697266 13.3955L17.416 0.62793L23.4473 5.22656ZM17.417 8.7334C18.144 8.73347 18.7673 8.96244 19.3086 9.4248C19.6984 9.75775 19.938 10.1519 20.0342 10.623H14.7988C14.895 10.1519 15.1347 9.75775 15.5244 9.4248C16.0659 8.96233 16.6898 8.7334 17.417 8.7334ZM25.833 9.7666L25.6357 9.61621L17.7188 3.59961L17.417 3.37012L17.1143 3.59961L9.19727 9.61621L9 9.7666V24.25H13.167V14.75H21.667V24.25H25.833V9.7666Z" fill="black" stroke="black"/>
</g>
</svg>
