<svg width="22" height="24" viewBox="0 0 22 24" fill="none" xmlns="http://www.w3.org/2000/svg">
<path d="M2 4.125H8.75M8.75 4.125C8.75 5.36764 9.75733 6.375 11 6.375C12.2427 6.375 13.25 5.36764 13.25 4.125M8.75 4.125C8.75 2.88236 9.75733 1.875 11 1.875C12.2427 1.875 13.25 2.88236 13.25 4.125M13.25 4.125H20M2 12H15.5M15.5 12C15.5 13.2427 16.5073 14.25 17.75 14.25C18.9927 14.25 20 13.2427 20 12C20 10.7573 18.9927 9.75 17.75 9.75C16.5073 9.75 15.5 10.7573 15.5 12ZM6.5 19.875H20M6.5 19.875C6.5 18.6323 5.49264 17.625 4.25 17.625C3.00736 17.625 2 18.6323 2 19.875C2 21.1177 3.00736 22.125 4.25 22.125C5.49264 22.125 6.5 21.1177 6.5 19.875Z" stroke="black" stroke-width="2.75" stroke-linecap="round"/>
</svg>
