<svg width="53" height="64" viewBox="0 0 53 64" fill="none" xmlns="http://www.w3.org/2000/svg">
<path d="M26.4199 63.1141C22.8972 59.7872 18.8608 57.243 14.3108 55.4817C9.76067 53.7204 4.99042 52.8397 0 52.8397V20.5488C4.94149 20.5488 9.68728 21.4417 14.2374 23.2275C18.7875 25.0133 22.8483 27.5941 26.4199 30.97C29.9914 27.5941 34.0523 25.0133 38.6024 23.2275C43.1524 21.4417 47.8982 20.5488 52.8397 20.5488V52.8397C47.8004 52.8397 43.0179 53.7204 38.4923 55.4817C33.9666 57.243 29.9425 59.7872 26.4199 63.1141ZM26.4199 55.4817C29.5022 53.1822 32.7802 51.3475 36.2539 49.9776C39.7276 48.6077 43.2992 47.7025 46.9686 47.2622V27.007C43.3971 27.643 39.8867 28.9273 36.4374 30.8599C32.9881 32.7924 29.649 35.3733 26.4199 38.6024C23.1908 35.3733 19.8516 32.7924 16.4023 30.8599C12.9531 28.9273 9.44265 27.643 5.87108 27.007V47.2622C9.54051 47.7025 13.1121 48.6077 16.5858 49.9776C20.0595 51.3475 23.3375 53.1822 26.4199 55.4817ZM26.4199 23.4843C23.1908 23.4843 20.4265 22.3346 18.127 20.0351C15.8275 17.7356 14.6777 14.9713 14.6777 11.7422C14.6777 8.51307 15.8275 5.74877 18.127 3.44926C20.4265 1.14975 23.1908 0 26.4199 0C29.649 0 32.4133 1.14975 34.7128 3.44926C37.0123 5.74877 38.162 8.51307 38.162 11.7422C38.162 14.9713 37.0123 17.7356 34.7128 20.0351C32.4133 22.3346 29.649 23.4843 26.4199 23.4843ZM26.4199 17.6132C28.0344 17.6132 29.4166 17.0384 30.5663 15.8886C31.7161 14.7389 32.2909 13.3567 32.2909 11.7422C32.2909 10.1276 31.7161 8.74546 30.5663 7.59571C29.4166 6.44596 28.0344 5.87108 26.4199 5.87108C24.8053 5.87108 23.4232 6.44596 22.2734 7.59571C21.1237 8.74546 20.5488 10.1276 20.5488 11.7422C20.5488 13.3567 21.1237 14.7389 22.2734 15.8886C23.4232 17.0384 24.8053 17.6132 26.4199 17.6132Z" fill="#1C1B1F"/>
</svg>
