<svg width="32" height="26" viewBox="0 0 32 26" fill="none" xmlns="http://www.w3.org/2000/svg">
<mask id="path-1-inside-1_397_73" fill="white">
<path d="M16 26L5.81818 20.5111V11.8444L0 8.66667L16 0L32 8.66667V20.2222H29.0909V10.2556L26.1818 11.8444V20.5111L16 26ZM16 14.0111L25.9636 8.66667L16 3.32222L6.03636 8.66667L16 14.0111ZM16 22.7139L23.2727 18.8139V13.3611L16 17.3333L8.72727 13.3611V18.8139L16 22.7139Z"/>
</mask>
<path d="M16 26L5.81818 20.5111V11.8444L0 8.66667L16 0L32 8.66667V20.2222H29.0909V10.2556L26.1818 11.8444V20.5111L16 26ZM16 14.0111L25.9636 8.66667L16 3.32222L6.03636 8.66667L16 14.0111ZM16 22.7139L23.2727 18.8139V13.3611L16 17.3333L8.72727 13.3611V18.8139L16 22.7139Z" fill="#1C1B1F"/>
<path d="M16 26L14.5764 28.6407L16 29.4082L17.4236 28.6407L16 26ZM5.81818 20.5111H2.81818V22.302L4.3946 23.1518L5.81818 20.5111ZM5.81818 11.8444H8.81818V10.0647L7.25621 9.21156L5.81818 11.8444ZM0 8.66667L-1.42885 6.02879L-6.27859 8.65573L-1.43803 11.2995L0 8.66667ZM16 0L17.4289 -2.63788L16 -3.41184L14.5712 -2.63788L16 0ZM32 8.66667H35V6.87983L33.4288 6.02879L32 8.66667ZM32 20.2222V23.2222H35V20.2222H32ZM29.0909 20.2222H26.0909V23.2222H29.0909V20.2222ZM29.0909 10.2556H32.0909V5.19871L27.6529 7.62267L29.0909 10.2556ZM26.1818 11.8444L24.7438 9.21156L23.1818 10.0647V11.8444H26.1818ZM26.1818 20.5111L27.6054 23.1518L29.1818 22.302V20.5111H26.1818ZM16 14.0111L14.5819 16.6548L16 17.4154L17.4181 16.6548L16 14.0111ZM25.9636 8.66667L27.3817 11.3104L32.3103 8.66667L27.3817 6.02298L25.9636 8.66667ZM16 3.32222L17.4181 0.678531L16 -0.0821098L14.5819 0.678531L16 3.32222ZM6.03636 8.66667L4.6183 6.02298L-0.310325 8.66667L4.6183 11.3104L6.03636 8.66667ZM16 22.7139L14.5822 25.3577L16 26.118L17.4178 25.3577L16 22.7139ZM23.2727 18.8139L24.6905 21.4577L26.2727 20.6093V18.8139H23.2727ZM23.2727 13.3611H26.2727V8.30426L21.8347 10.7282L23.2727 13.3611ZM16 17.3333L14.562 19.9662L16 20.7516L17.438 19.9662L16 17.3333ZM8.72727 13.3611L10.1653 10.7282L5.72727 8.30426V13.3611H8.72727ZM8.72727 18.8139H5.72727V20.6093L7.30951 21.4577L8.72727 18.8139ZM16 26L17.4236 23.3593L7.24176 17.8704L5.81818 20.5111L4.3946 23.1518L14.5764 28.6407L16 26ZM5.81818 20.5111H8.81818V11.8444H5.81818H2.81818V20.5111H5.81818ZM5.81818 11.8444L7.25621 9.21156L1.43803 6.03378L0 8.66667L-1.43803 11.2995L4.38015 14.4773L5.81818 11.8444ZM0 8.66667L1.42885 11.3045L17.4289 2.63788L16 0L14.5712 -2.63788L-1.42885 6.02879L0 8.66667ZM16 0L14.5712 2.63788L30.5711 11.3045L32 8.66667L33.4288 6.02879L17.4289 -2.63788L16 0ZM32 8.66667H29V20.2222H32H35V8.66667H32ZM32 20.2222V17.2222H29.0909V20.2222V23.2222H32V20.2222ZM29.0909 20.2222H32.0909V10.2556H29.0909H26.0909V20.2222H29.0909ZM29.0909 10.2556L27.6529 7.62267L24.7438 9.21156L26.1818 11.8444L27.6199 14.4773L30.5289 12.8884L29.0909 10.2556ZM26.1818 11.8444H23.1818V20.5111H26.1818H29.1818V11.8444H26.1818ZM26.1818 20.5111L24.7582 17.8704L14.5764 23.3593L16 26L17.4236 28.6407L27.6054 23.1518L26.1818 20.5111ZM16 14.0111L17.4181 16.6548L27.3817 11.3104L25.9636 8.66667L24.5456 6.02298L14.5819 11.3674L16 14.0111ZM25.9636 8.66667L27.3817 6.02298L17.4181 0.678531L16 3.32222L14.5819 5.96591L24.5456 11.3104L25.9636 8.66667ZM16 3.32222L14.5819 0.678531L4.6183 6.02298L6.03636 8.66667L7.45443 11.3104L17.4181 5.96591L16 3.32222ZM6.03636 8.66667L4.6183 11.3104L14.5819 16.6548L16 14.0111L17.4181 11.3674L7.45443 6.02298L6.03636 8.66667ZM16 22.7139L17.4178 25.3577L24.6905 21.4577L23.2727 18.8139L21.855 16.17L14.5822 20.07L16 22.7139ZM23.2727 18.8139H26.2727V13.3611H23.2727H20.2727V18.8139H23.2727ZM23.2727 13.3611L21.8347 10.7282L14.562 14.7004L16 17.3333L17.438 19.9662L24.7108 15.994L23.2727 13.3611ZM16 17.3333L17.438 14.7004L10.1653 10.7282L8.72727 13.3611L7.28924 15.994L14.562 19.9662L16 17.3333ZM8.72727 13.3611H5.72727V18.8139H8.72727H11.7273V13.3611H8.72727ZM8.72727 18.8139L7.30951 21.4577L14.5822 25.3577L16 22.7139L17.4178 20.07L10.145 16.17L8.72727 18.8139Z" fill="black" mask="url(#path-1-inside-1_397_73)"/>
</svg>
