<svg width="31" height="31" viewBox="0 0 31 31" fill="none" xmlns="http://www.w3.org/2000/svg">
<path d="M3.44434 1H27.5557C28.2355 1.00002 28.7928 1.23028 29.2812 1.71875C29.7697 2.20722 30 2.76449 30 3.44434V27.5557C30 28.2355 29.7697 28.7928 29.2812 29.2812C28.7928 29.7697 28.2355 30 27.5557 30H3.44434C2.76449 30 2.20722 29.7697 1.71875 29.2812C1.23028 28.7928 1.00002 28.2355 1 27.5557V3.44434C1.00002 2.76449 1.23028 2.20722 1.71875 1.71875C2.20722 1.23028 2.76449 1.00002 3.44434 1ZM2.44434 28.5557H28.5557V2.44434H2.44434V28.5557ZM23.1113 7.88867V23.1113H21.667V7.88867H23.1113ZM16.2227 19.9443V23.1113H14.7773V19.9443H16.2227ZM9.33301 16.5V23.1113H7.88867V16.5H9.33301ZM16.2227 13.0557V14.5H14.7773V13.0557H16.2227Z" fill="#1C1B1F" stroke="black" stroke-width="2"/>
</svg>
